<?xml version="1.0" standalone="no"?>
<!DOCTYPE svg PUBLIC "-//W3C//DTD SVG 20010904//EN"
 "http://www.w3.org/TR/2001/REC-SVG-20010904/DTD/svg10.dtd">
<svg version="1.0" xmlns="http://www.w3.org/2000/svg"
 width="512.000000pt" height="512.000000pt" viewBox="0 0 512.000000 512.000000"
 preserveAspectRatio="xMidYMid meet">
<metadata>
Created by potrace 1.14, written by Peter Selinger 2001-2017
</metadata>
<g transform="translate(0.000000,512.000000) scale(0.100000,-0.100000)"
fill="#000000" stroke="none">
<path d="M0 3860 c0 -1003 3 -1259 13 -1255 49 15 206 44 272 50 177 15 392
70 467 120 21 14 40 25 44 25 9 0 74 74 74 85 0 6 9 18 20 28 20 17 20 16 15
-10 -3 -16 8 -1 26 34 25 51 28 66 19 83 -17 31 -3 76 36 114 18 18 62 89 97
157 58 116 152 267 208 335 90 108 266 260 389 335 31 19 64 40 75 47 11 6 31
17 45 23 14 5 39 17 55 25 188 96 512 154 740 134 144 -13 235 -30 360 -70
188 -60 306 -122 484 -253 166 -122 274 -239 417 -448 218 -319 253 -358 343
-386 31 -10 58 -21 59 -25 2 -5 22 -8 43 -8 22 0 38 -3 36 -7 -6 -9 173 -8
209 1 39 10 274 7 319 -4 22 -5 88 -7 148 -3 l107 6 0 1064 0 1063 -2560 0
-2560 0 0 -1260z"/>
<path d="M2265 3696 c-160 -32 -353 -123 -432 -205 -29 -29 -53 -60 -53 -67 0
-28 -80 -94 -115 -94 -20 0 -77 -84 -130 -190 -26 -52 -51 -103 -56 -112 -16
-32 -29 -183 -20 -232 9 -47 51 -106 77 -106 7 0 14 -5 16 -10 7 -22 147 -30
485 -26 341 4 558 16 631 35 20 6 82 15 137 21 55 6 123 17 150 25 28 8 86 21
130 30 226 47 325 80 325 109 0 8 4 16 8 18 5 2 5 30 0 63 -4 33 -8 71 -8 85
0 13 -8 40 -17 60 -9 19 -17 40 -18 45 -4 35 -80 159 -134 219 -60 66 -83 86
-162 145 -108 80 -222 135 -356 172 -101 27 -352 36 -458 15z m-265 -464 c0
-24 -1 -25 -16 -10 -10 9 -14 24 -10 33 9 23 26 9 26 -23z"/>
<path d="M3945 3120 c3 -5 8 -10 11 -10 2 0 4 5 4 10 0 6 -5 10 -11 10 -5 0
-7 -4 -4 -10z"/>
<path d="M4960 2371 c-30 -9 -60 -19 -66 -23 -6 -4 -35 -12 -65 -17 -84 -15
-184 -47 -171 -55 7 -4 2 -15 -14 -33 -13 -14 -24 -32 -24 -39 0 -8 -8 -14
-17 -14 -10 0 -31 -9 -48 -20 -16 -11 -45 -20 -63 -20 -18 0 -65 -12 -105 -26
-39 -14 -103 -30 -141 -35 -38 -5 -74 -13 -80 -18 -6 -5 -27 -12 -46 -16 -19
-4 -47 -16 -61 -26 -14 -10 -36 -20 -50 -24 -42 -10 -73 -41 -74 -72 0 -21 -5
-28 -19 -26 -17 1 -47 -21 -102 -74 -13 -13 -28 -23 -34 -23 -16 0 -77 -47
-131 -100 -78 -77 -152 -140 -166 -140 -7 0 -13 -4 -13 -10 0 -5 -7 -10 -15
-10 -8 0 -15 -4 -15 -9 0 -5 -13 -14 -29 -21 -16 -6 -37 -21 -47 -31 -10 -11
-42 -33 -71 -50 -31 -18 -50 -35 -47 -41 4 -7 2 -8 -4 -4 -7 4 -49 -13 -94
-37 -46 -25 -101 -50 -123 -57 -22 -7 -53 -18 -70 -25 -78 -33 -230 -66 -354
-76 -307 -26 -624 46 -891 201 -36 21 -81 46 -100 57 -60 33 -204 130 -232
157 -15 14 -31 26 -36 26 -5 0 -16 7 -23 16 -13 16 -58 38 -71 36 -3 -1 -28 5
-55 13 -27 8 -98 19 -158 24 -81 7 -111 13 -117 25 -12 21 -58 21 -58 1 0 -8
-9 -15 -20 -15 -11 0 -20 5 -20 10 0 6 -16 10 -36 10 -33 0 -36 2 -30 23 3 12
6 25 6 29 0 3 10 4 22 0 18 -4 20 -2 13 14 -5 10 -9 33 -9 50 0 22 -6 34 -20
40 -14 6 -21 19 -22 37 -1 15 -3 29 -5 31 -7 7 -303 78 -339 81 -74 7 -137 17
-175 30 -22 8 -82 16 -133 20 l-92 6 0 -1061 0 -1060 2560 0 2560 0 0 1195 0
1195 -52 -1 c-29 -1 -78 -9 -108 -18z m-3580 -1131 c0 -5 -2 -10 -4 -10 -3 0
-8 5 -11 10 -3 6 -1 10 4 10 6 0 11 -4 11 -10z"/>
<path d="M4590 2240 c-12 -8 -11 -10 8 -10 12 0 22 5 22 10 0 13 -11 13 -30 0z"/>
<path d="M2522 1953 c5 -18 0 -22 -28 -28 -19 -3 -39 -3 -46 1 -7 4 -8 3 -4
-4 4 -7 23 -12 42 -12 27 0 34 -4 32 -16 -2 -13 6 -17 32 -19 38 -2 70 10 70
25 0 6 -10 10 -22 10 -13 0 -32 8 -43 17 -20 15 -20 15 2 10 13 -3 24 1 27 8
3 8 -2 11 -15 8 -10 -3 -27 1 -36 8 -15 12 -16 12 -11 -8z"/>
<path d="M866 1843 c-7 -7 22 -43 36 -43 4 0 8 5 8 10 0 6 -7 10 -16 10 -8 0
-13 4 -9 9 6 11 -9 23 -19 14z"/>
</g>
</svg>
